<svg width="24" height="24" viewBox="0 0 24 24" fill="none" xmlns="http://www.w3.org/2000/svg">
<path fill-rule="evenodd" clip-rule="evenodd" d="M8 5C8 4.44772 8.44772 4 9 4H10H14H15C15.5523 4 16 4.44772 16 5C16 5.55228 15.5523 6 15 6H14.625L18.375 18H19C19.5523 18 20 18.4477 20 19C20 19.5523 19.5523 20 19 20H5C4.44772 20 4 19.5523 4 19C4 18.4477 4.44772 18 5 18H5.625L9.375 6H9C8.44772 6 8 5.55228 8 5ZM14 8C14 8.55228 13.5523 9 13 9H11C10.4477 9 10 8.55228 10 8C10 7.44772 10.4477 7 11 7H13C13.5523 7 14 7.44772 14 8ZM15 12C15 12.5523 14.5523 13 14 13H10C9.44772 13 9 12.5523 9 12C9 11.4477 9.44772 11 10 11L14 11C14.5523 11 15 11.4477 15 12ZM15 17C15.5523 17 16 16.5523 16 16C16 15.4477 15.5523 15 15 15L9 15C8.44772 15 8 15.4477 8 16C8 16.5523 8.44772 17 9 17L15 17Z" fill="#818F99"/>
</svg>
