<svg width="112" height="14" viewBox="0 0 112 14" fill="none" xmlns="http://www.w3.org/2000/svg">
<path d="M21.1549 9.18012C21.1795 10.4187 20.7186 11.6176 19.8711 12.5192C19.0237 13.4207 17.8574 13.9531 16.6228 14.0018H3.6799C3.12247 13.9926 2.5752 13.8507 2.0832 13.5878C1.59121 13.3249 1.16859 12.9485 0.850167 12.4896C0.290526 11.7096 -0.00701061 10.7712 0.000631908 9.81032C0.000631908 7.49717 1.64847 5.61831 3.6799 5.61831H3.82354C3.93488 2.50193 6.74402 0.000110737 10.1889 0.000110737C11.6275 -0.00814928 13.0309 0.445884 14.1933 1.29566C14.9422 1.84371 15.5524 2.56029 15.9748 3.38777C16.1315 3.69841 16.2584 4.02323 16.3539 4.3579H16.537C17.4372 4.35737 18.3165 4.6298 19.0595 5.13938C19.7108 5.59066 20.2422 6.19473 20.6074 6.89899C20.9726 7.60326 21.1606 8.38636 21.1549 9.18012Z" fill="white"/>
<path d="M21.1549 9.18012C21.1795 10.4187 20.7186 11.6176 19.8711 12.5192C19.0237 13.4207 17.8574 13.9531 16.6228 14.0018H3.6799C3.12247 13.9926 2.5752 13.8507 2.0832 13.5878C1.59121 13.3249 1.16859 12.9485 0.850167 12.4896C0.290526 11.7096 -0.00701061 10.7712 0.000631908 9.81032C0.000631908 7.49717 1.64847 5.61831 3.6799 5.61831H3.82354C3.93488 2.50193 6.74402 0.000110737 10.1889 0.000110737C11.6275 -0.00814928 13.0309 0.445884 14.1933 1.29566C14.9422 1.84371 15.5524 2.56029 15.9748 3.38777C16.1315 3.69841 16.2584 4.02323 16.3539 4.3579H16.537C17.4372 4.35737 18.3165 4.6298 19.0595 5.13938C19.7108 5.59066 20.2422 6.19473 20.6074 6.89899C20.9726 7.60326 21.1606 8.38636 21.1549 9.18012ZM17.057 8.11956L12.826 3.8773L8.59507 8.11956H11.9676L12.8244 7.2605L13.6811 8.11956H17.057ZM3.25402 9.11983L7.485 13.3621L11.716 9.11983H8.34344L7.48667 9.97889L6.62989 9.11983H3.25402Z" fill="#BD061C"/>
<path d="M101.106 6.56496C102.119 6.6459 102.604 6.19939 102.604 5.14441C102.604 4.37355 102.281 3.88678 101.511 3.88678C100.701 3.88678 100.419 4.4556 100.459 5.14441H99.8109C99.7733 4.91323 99.7876 4.67651 99.8528 4.45158C99.918 4.22665 100.032 4.01917 100.188 3.84419C100.343 3.66921 100.535 3.53115 100.751 3.44013C100.966 3.3491 101.199 3.30742 101.432 3.31802C102.606 3.31802 103.254 3.76456 103.254 5.02217C103.254 5.8349 103.052 6.56497 102.161 6.76815C103.133 6.85021 103.335 7.66128 103.335 8.474C103.335 9.73161 102.727 10.4617 101.593 10.4617C100.379 10.4617 99.6918 9.89406 99.7318 8.6359H100.379C100.379 9.40676 100.703 9.89347 101.513 9.89347C102.444 9.89347 102.687 9.28453 102.687 8.55386C102.687 7.33645 102.364 6.88985 101.106 6.97134V6.56496ZM106.936 5.02217C106.896 4.33336 106.613 3.88623 105.925 3.88623C104.751 3.88623 104.709 5.14386 104.709 6.1994V6.80835C104.837 6.55776 105.037 6.35084 105.282 6.21364C105.527 6.07645 105.807 6.01514 106.087 6.0375C107.747 6.0375 107.624 7.78352 107.624 7.98559C107.624 9.32525 107.462 10.5025 105.925 10.5025C104.224 10.5025 104.062 9.52897 104.062 8.10837V5.91581C104.062 4.21165 104.387 3.40006 105.926 3.40006C107.019 3.40006 107.505 3.96717 107.546 5.06346H106.937L106.936 5.02217ZM105.925 6.60632C105.196 6.60632 104.709 7.09304 104.709 8.27027C104.709 8.31213 104.589 10.0157 105.883 10.0157C106.977 10.0157 107.017 9.04167 107.017 8.18987C107.017 7.13433 106.735 6.60632 105.926 6.60632H105.925ZM111.998 8.27027C111.998 9.44694 111.715 10.5438 110.216 10.5438C109.041 10.5438 108.435 9.97613 108.435 8.7576H109.081C109.081 9.5279 109.366 10.0146 110.216 10.0146C111.268 10.0146 111.388 9.08135 111.388 8.26918C111.388 7.41794 111.309 6.52483 110.216 6.52483C109.98 6.51137 109.745 6.57516 109.548 6.70669C109.35 6.83823 109.201 7.03042 109.121 7.25439H108.554V3.47931H111.753V4.00793H109.163V6.48238C109.317 6.31287 109.504 6.17823 109.714 6.08745C109.924 5.99667 110.151 5.95185 110.379 5.95601C112.038 5.99564 111.999 7.41794 111.999 8.26918L111.998 8.27027ZM25.397 3.5206H28.3119C29.2244 3.46595 30.1344 3.66267 30.9435 4.08942C31.3829 4.42277 31.7318 4.86144 31.9581 5.36518C32.1845 5.86892 32.2811 6.42161 32.2389 6.9725C32.2389 8.51367 31.7534 9.65176 30.3355 10.1787C29.6844 10.3986 28.9981 10.4948 28.3119 10.4623H25.397V3.5206ZM27.3404 9.12316H28.1505C29.4047 9.12316 30.2554 8.55442 30.2554 6.9725C30.2554 4.8603 28.6754 4.86027 28.1087 4.86027H27.3404V9.12316ZM34.3438 8.43217C34.3438 8.67721 34.3438 9.60994 35.2763 9.60994C35.3754 9.6231 35.4762 9.61529 35.5722 9.58698C35.6681 9.55867 35.757 9.5105 35.8333 9.44559C35.9095 9.38069 35.9712 9.30044 36.0146 9.2101C36.058 9.11977 36.0821 9.02135 36.0852 8.92113H37.7448C37.6228 10.1385 36.4905 10.5845 35.2346 10.5845C33.575 10.5845 32.6436 9.73216 32.6436 8.14857C32.6436 6.52591 33.4125 5.4693 35.1939 5.4693C36.53 5.4693 37.1374 5.99787 37.4608 6.68891C37.6892 7.22626 37.7863 7.81049 37.7442 8.39305H34.3432L34.3438 8.43217ZM36.0852 7.41901C36.0852 7.13489 36.0034 6.40422 35.2346 6.40422C34.4657 6.40422 34.3856 7.17508 34.3438 7.41901H36.0852ZM41.5515 7.33697C41.5515 6.89042 41.3901 6.52592 40.903 6.52592C40.2555 6.52592 40.0941 7.21531 40.0941 8.02804C40.0941 9.28564 40.4576 9.57029 40.903 9.57029C41.5114 9.57029 41.5515 8.96131 41.5515 8.5957H43.3731C43.3731 9.81479 42.4021 10.5851 40.9441 10.5851C39.4048 10.5851 38.2302 9.77349 38.2302 8.02858C38.2302 6.12012 39.5663 5.4693 40.9024 5.4693C41.2562 5.4469 41.6109 5.49659 41.945 5.61545C42.2791 5.73432 42.5858 5.91984 42.8464 6.16083C43.1346 6.48798 43.3055 6.90235 43.3318 7.33806L41.5515 7.33697ZM43.9804 3.56189H45.8014V4.85973H43.9804V3.56189ZM44.0194 5.63228H45.8008V10.4623H44.0177L44.0194 5.63228ZM48.2715 8.87813C48.2652 9.03119 48.293 9.18374 48.3528 9.32471C48.3984 9.42234 48.4741 9.50263 48.5688 9.5538C48.6634 9.60496 48.7719 9.62423 48.8783 9.60878C48.9406 9.61552 49.0035 9.6099 49.0636 9.59223C49.1237 9.57455 49.1797 9.54516 49.2285 9.50576C49.2772 9.46636 49.3178 9.41771 49.3477 9.3626C49.3777 9.30749 49.3966 9.24698 49.4033 9.18455C49.4047 9.16374 49.4047 9.14288 49.4033 9.12207C49.4033 8.79776 49.1199 8.67549 48.7147 8.594L47.7437 8.31102C47.4281 8.26448 47.1384 8.10931 46.9243 7.87214C46.7102 7.63496 46.585 7.33055 46.5702 7.011C46.565 6.79533 46.6142 6.5818 46.713 6.39019C46.8119 6.19858 46.9573 6.03509 47.1358 5.91472C47.651 5.61544 48.2427 5.47472 48.8371 5.51004C49.8887 5.51004 50.942 5.79413 51.0238 7.13378H49.3226C49.3355 6.96683 49.3078 6.79923 49.2419 6.64537C49.2001 6.48238 49.0798 6.40259 48.7965 6.40259C48.5131 6.40259 48.2698 6.52482 48.2698 6.80726C48.2698 7.08971 48.4714 7.1734 48.7558 7.25378L50.0513 7.61995C50.3732 7.6605 50.6683 7.82063 50.8782 8.06865C51.0882 8.31666 51.1977 8.63456 51.1853 8.95963C51.1853 10.5828 49.2819 10.5828 48.8767 10.5828C47.9063 10.5828 46.489 10.4216 46.5279 8.87704L48.2715 8.87813ZM51.8344 3.56189H53.656V4.85973H51.8344V3.56189ZM51.8745 5.63228H53.656V10.4623H51.8745V5.63228ZM57.2606 5.46759C58.8389 5.46759 60.0531 6.24071 60.0531 7.9845C60.08 8.68624 59.8334 9.37088 59.3656 9.89347C59.0993 10.1383 58.7859 10.3258 58.4445 10.4445C58.1032 10.5632 57.7412 10.6105 57.3809 10.5834C56.9797 10.6206 56.5751 10.575 56.1921 10.4495C55.8092 10.3239 55.4559 10.121 55.1541 9.85326C54.9198 9.61306 54.7377 9.32675 54.6195 9.01237C54.5012 8.69799 54.4494 8.3624 54.4671 8.02688C54.427 6.56442 55.3177 5.46759 57.2612 5.46759H57.2606ZM56.5325 9.16282C56.5979 9.28535 56.6982 9.38558 56.8207 9.4507C56.9431 9.51582 57.0821 9.5429 57.22 9.52845C57.9905 9.52845 58.1525 8.67608 58.1525 7.98504C58.1525 7.13436 57.9493 6.44388 57.22 6.44388C56.4111 6.44388 56.2892 7.25493 56.2892 7.98504C56.2672 8.39231 56.3511 8.79831 56.5325 9.16336V9.16282ZM60.7428 6.64591L60.7027 5.63228H62.4843V6.36184C62.6356 6.08111 62.8656 5.85086 63.1458 5.6996C63.4261 5.54834 63.7444 5.48266 64.0614 5.51059C65.8033 5.51059 65.8034 6.8502 65.8034 7.49826V10.4226H64.0219V7.66131C64.0219 7.337 64.0219 6.64591 63.2931 6.64591C62.4843 6.64591 62.4843 7.49832 62.4843 7.66131V10.4226H60.7027L60.7428 6.64591ZM68.5128 8.26857C68.5128 8.55268 68.554 9.3241 69.6869 9.3241C69.8489 9.3241 70.6996 9.32411 70.6996 8.55325C70.6996 8.22894 70.5777 8.02631 70.0922 7.86444L68.3932 7.41792C67.9253 7.36499 67.4934 7.14123 67.1796 6.78934C66.8658 6.43745 66.6921 5.98207 66.6918 5.51004C66.6918 4.37301 67.5419 3.35761 69.6067 3.35761C72.3196 3.35761 72.4009 4.8195 72.441 5.55018H70.4975C70.5162 5.42483 70.5068 5.2969 70.4699 5.17569C70.4329 5.05447 70.3694 4.94304 70.2841 4.84957C70.1987 4.75611 70.0936 4.68298 69.9764 4.63548C69.8592 4.58798 69.7329 4.56732 69.6067 4.57504C69.0394 4.57504 68.716 4.90101 68.716 5.30569C68.716 5.83374 69.1213 5.95603 69.4035 6.03641L70.6996 6.36123C71.6304 6.60516 72.7243 6.88931 72.7243 8.35122C72.7243 9.8935 71.3882 10.584 69.6869 10.584C68.9582 10.584 67.8258 10.4618 67.1773 9.77238C66.8084 9.34651 66.6197 8.79321 66.6512 8.23007L68.5128 8.26857ZM75.0731 5.63112V6.31994C75.2391 6.05497 75.4734 5.83981 75.7511 5.69708C76.0289 5.55435 76.3398 5.48932 76.6513 5.50888C77.4619 5.50888 78.7162 5.95542 78.7162 7.94314C78.7162 9.81196 77.6634 10.5421 76.5711 10.5421C76.2917 10.5463 76.0151 10.4864 75.7623 10.3668C75.5096 10.2472 75.2875 10.0712 75.1131 9.85217V12.2474H73.3317V6.44218C73.3317 5.91357 73.2916 5.87339 73.2916 5.67133L75.0731 5.63112ZM75.9638 9.48545C76.7326 9.48545 76.8545 8.67492 76.8545 7.94314C76.8545 7.49658 76.7727 6.56333 76.0039 6.56333C75.0731 6.56333 75.0731 7.78186 75.0731 8.02579C75.1132 8.42992 75.1532 9.48545 75.9638 9.48545ZM82.4399 10.4606C82.4012 10.2328 82.388 10.0014 82.4005 9.77068C82.2342 10.0332 81.9985 10.2444 81.7197 10.3807C81.4408 10.517 81.1298 10.5731 80.8211 10.5427C79.647 10.5427 79.1214 9.89295 79.1214 9.04003C79.1214 7.74224 80.3356 7.25383 82.401 7.33588C82.401 6.80728 82.3609 6.32048 81.7936 6.32048C81.4702 6.32048 81.1467 6.48185 81.1467 7.0512H79.4054C79.3931 6.866 79.4191 6.68024 79.4816 6.50555C79.5442 6.33085 79.642 6.17092 79.7689 6.0358C80.3362 5.60073 81.0406 5.38463 81.7536 5.42684C82.4228 5.37694 83.0865 5.57937 83.6146 5.99451C83.7685 6.1627 83.8844 6.36224 83.9544 6.57948C84.0243 6.79672 84.0467 7.02654 84.0199 7.25323V9.52674C84.0123 9.8399 84.0396 10.1529 84.1012 10.46L82.4399 10.4606ZM80.9029 8.87704C80.8985 8.95805 80.91 9.03913 80.9369 9.11566C80.9637 9.1922 81.0053 9.26268 81.0593 9.32308C81.1134 9.38347 81.1787 9.43262 81.2517 9.46767C81.3247 9.50271 81.4039 9.52294 81.4847 9.52729C81.5064 9.52878 81.5281 9.52878 81.5498 9.52729C81.6959 9.53006 81.8394 9.4891 81.9621 9.40955C82.0848 9.32999 82.1811 9.2155 82.2385 9.08078C82.3699 8.80279 82.4125 8.49087 82.3604 8.18769C81.6316 8.18769 80.9023 8.18763 80.9023 8.87588L80.9029 8.87704ZM88.0677 7.33473C88.0677 6.88817 87.9057 6.52367 87.4203 6.52367C86.7723 6.52367 86.6103 7.21306 86.6103 8.02579C86.6103 9.28339 86.9749 9.56804 87.4203 9.56804C88.0276 9.56804 88.0677 8.95907 88.0677 8.59345H89.8892C89.8892 9.81254 88.9184 10.5828 87.4604 10.5828C85.9233 10.5828 84.7486 9.77124 84.7486 8.02633C84.7486 6.11788 86.0847 5.46705 87.4208 5.46705C87.7746 5.44481 88.1292 5.49462 88.4633 5.61348C88.7975 5.73234 89.1042 5.9178 89.3649 6.15865C89.6531 6.48573 89.8238 6.90018 89.8497 7.33588L88.0677 7.33473ZM91.8739 8.42992C91.8739 8.67496 91.8739 9.60769 92.8053 9.60769C92.9044 9.62067 93.0053 9.61269 93.1012 9.58432C93.1971 9.55595 93.286 9.50779 93.3623 9.44293C93.4385 9.37808 93.5005 9.29797 93.5441 9.20772C93.5876 9.11747 93.6118 9.01909 93.6153 8.91888H95.2749C95.1529 10.1363 94.0189 10.5823 92.7646 10.5823C91.1051 10.5823 90.1726 9.72991 90.1726 8.14632C90.1726 6.52366 90.9431 5.46705 92.7245 5.46705C94.0606 5.46705 94.6675 5.99562 94.9915 6.68666C95.2191 7.22421 95.3163 7.80827 95.2749 8.39081H91.8739V8.42992ZM93.6153 7.41676C93.6153 7.13265 93.534 6.40198 92.7646 6.40198C91.9953 6.40198 91.914 7.17283 91.8739 7.41676H93.6153ZM99.0382 4.77769C99.0378 5.15461 98.8881 5.51589 98.6221 5.78226C98.3561 6.04862 97.9956 6.19824 97.6197 6.19824H97.5802C97.3892 6.20201 97.1994 6.16759 97.0219 6.09692C96.8444 6.02625 96.6827 5.92076 96.5463 5.78668C96.41 5.65261 96.3016 5.49262 96.2276 5.31605C96.1537 5.13948 96.1156 4.94991 96.1156 4.75841C96.1156 4.5669 96.1537 4.37733 96.2276 4.20076C96.3016 4.02419 96.41 3.8642 96.5463 3.73013C96.6827 3.59605 96.8444 3.49056 97.0219 3.41989C97.1994 3.34922 97.3892 3.3148 97.5802 3.31857C97.9662 3.31901 98.3363 3.47292 98.6093 3.74655C98.8823 4.02018 99.0359 4.39119 99.0365 4.77823L99.0382 4.77769ZM96.4863 4.77823C96.4781 4.92614 96.5005 5.07412 96.552 5.21296C96.6035 5.3518 96.683 5.47851 96.7856 5.58513C96.8882 5.69175 97.0116 5.776 97.1481 5.83261C97.2846 5.88922 97.4314 5.91701 97.5791 5.91417C97.7232 5.91366 97.8658 5.88466 97.9988 5.82886C98.1318 5.77306 98.2525 5.69153 98.354 5.58895C98.4555 5.48636 98.5359 5.36469 98.5906 5.23095C98.6452 5.0972 98.673 4.95404 98.6725 4.80951V4.77823C98.6808 4.63023 98.6584 4.48208 98.607 4.3431C98.5556 4.20413 98.4761 4.07733 98.3735 3.97059C98.2709 3.86385 98.1474 3.77951 98.0108 3.72283C97.8742 3.66616 97.7274 3.63836 97.5796 3.6412C97.2852 3.64924 97.0056 3.77291 96.8012 3.98558C96.5968 4.19825 96.4839 4.4829 96.4868 4.77823H96.4863ZM97.3775 5.50888H97.054V4.12737C97.2267 4.09059 97.4035 4.07706 97.5796 4.08717C97.863 4.08717 97.9849 4.12736 98.065 4.20941C98.1469 4.2496 98.187 4.37188 98.187 4.53375C98.1837 4.61211 98.1538 4.68695 98.1023 4.74594C98.0508 4.80492 97.9806 4.84447 97.9036 4.85802C98.0255 4.89989 98.1068 5.02046 98.1469 5.2242C98.1671 5.35164 98.2083 5.47486 98.2688 5.58874H97.9036C97.8372 5.47749 97.7956 5.3531 97.7817 5.2242C97.7416 5.06121 97.6614 4.98026 97.4994 4.98026H97.3363L97.3775 5.50888ZM97.3775 4.73803H97.5406C97.7026 4.73803 97.8641 4.69673 97.8641 4.5343C97.8641 4.41205 97.7822 4.33165 97.5807 4.33165H97.4187V4.73803H97.3775Z" fill="#BD061C"/>
</svg>
