<svg width="106" height="8" viewBox="0 0 106 8" fill="none" xmlns="http://www.w3.org/2000/svg">
<path d="M0 7.90977H2.27018V4.94828H7.05783V7.90977H9.32881V0.0859869H7.05783V2.87295H2.27018V0.0859869H0V7.90977ZM10.1376 7.90977H12.6728L13.3383 6.52734H17.9406L18.6463 7.90977H21.1727L17.102 0.0859869H14.1479L10.1376 7.90977ZM15.6221 1.90253L17.0948 4.84528H14.1898L15.6221 1.90253ZM21.9863 7.91147H29.36V5.90339H24.2573V0.08939H21.9863V7.91147ZM30.3243 7.91147H37.6955V5.90339H32.5888V0.08939H30.3202L30.3243 7.91147ZM38.783 7.91147H41.0524V0.0876884H38.783V7.91147ZM42.7103 7.91147H49.9405C51.2392 7.91147 52.201 7.55735 52.201 5.83783C52.201 4.65886 51.8313 4.09789 50.8404 3.9651V3.9336C51.4736 3.73781 51.9344 3.48074 51.9344 2.13833C51.9344 0.606093 51.0555 0.0859869 49.2461 0.0859869H42.7079L42.7103 7.91147ZM44.9805 4.81038H49.0528C49.5458 4.81038 49.8729 4.92871 49.8729 5.45904C49.8729 5.9136 49.5458 6.03193 49.0528 6.03193H44.9781L44.9805 4.81038ZM44.9805 1.96723H49.0012C49.4217 1.96723 49.6666 2.12897 49.6666 2.58268C49.6666 3.0364 49.425 3.18876 49.0012 3.18876H44.9781L44.9805 1.96723ZM53.5746 5.12619C53.5746 7.06958 54.526 7.99914 56.6125 7.99914H59.8655C61.9512 7.99914 62.9034 7.06958 62.9034 5.12619V0.0876884H60.6308V4.60609C60.6308 5.59949 60.2932 5.99021 59.3636 5.99021H57.1079C56.1783 5.99021 55.8399 5.59949 55.8399 4.60609V0.0876884H53.5698L53.5746 5.12619ZM66.7058 2.03193H70.2561C70.9746 2.03193 71.3033 2.16046 71.3033 2.85337V3.11301C71.3033 3.67568 71.0786 3.93446 70.4647 3.93446H66.7098L66.7058 2.03193ZM64.4356 7.91061H66.7058V5.87785H70.2762C70.9819 5.87785 71.2075 6.14939 71.2075 6.96829V7.90891H73.4768V6.58437C73.4768 5.29814 72.9129 4.98489 72.2402 4.85465V4.83251C73.2875 4.57714 73.5075 3.95829 73.5075 2.91041V2.41328C73.5075 1.00703 73.0378 0.0902343 71.2896 0.0902343H64.4356V7.91061ZM74.4999 2.03193H77.6933V7.91061H79.9635V2.03193H83.1553V0.0868312H74.5016L74.4999 2.03193ZM83.985 5.1679C83.985 7.4603 85.2015 8 87.2485 8H90.8898C92.9352 8 94.1509 7.4603 94.1509 5.1679V2.8321C94.1509 0.539698 92.9352 0 90.8898 0H87.2485C85.2015 0 83.985 0.539698 83.985 2.8321V5.1679ZM86.3156 3.57778C86.3156 2.60481 86.5412 2.00979 87.7383 2.00979H90.3968C91.5947 2.00979 91.8203 2.60566 91.8203 3.57778V4.42052C91.8203 5.55778 91.5955 5.99021 90.5184 5.99021H87.6135C86.5396 5.99021 86.314 5.55778 86.314 4.42052L86.3156 3.57778ZM95.5236 7.91061H97.793V2.22516H97.8115L102.081 7.91061H105.6V0.0868312H103.33V5.77399H103.309L99.0392 0.0868312H95.5212L95.5236 7.91061Z" fill="#C9CFD4"/>
</svg>
