<svg width="244" height="14" viewBox="0 0 244 14" fill="none" xmlns="http://www.w3.org/2000/svg">
<path d="M0 9.88556H2.83732V6.18838H8.82167V9.88923H11.6604V0.108564H8.82167V3.59155H2.83732V0.108564H0V9.88556ZM12.6721 9.88556H15.8414L16.6746 8.15801H22.4236L23.3062 9.88556H26.4643L21.3757 0.108564H17.6822L12.6721 9.88556ZM19.5252 2.37603L21.366 6.0534H17.7343L19.5252 2.37603ZM27.4788 9.88556H36.6956V7.37455H30.3175V0.112236H27.4788V9.88556ZM37.9011 9.88556H47.1199V7.37455H40.7363V0.112236H37.9011V9.88556ZM48.4761 9.88556H51.3106V0.108564H48.474L48.4761 9.88556ZM53.3855 9.88556H62.4259C64.0487 9.88556 65.2514 9.44542 65.2514 7.2946C65.2514 5.82086 64.7897 5.12031 63.5502 4.95672V4.91711C64.3418 4.67283 64.9181 4.35079 64.9181 2.67312C64.9181 0.757774 63.8196 0.105632 61.5579 0.105632H53.3855V9.88556ZM56.2228 6.01012H61.3128C61.9287 6.01012 62.3377 6.15684 62.3377 6.82072C62.3377 7.3885 61.9287 7.53668 61.3128 7.53668H56.2228V6.01012ZM56.2228 2.45746H61.2489C61.7746 2.45746 62.0822 2.65992 62.0822 3.22697C62.0822 3.78228 61.776 3.98473 61.2489 3.98473H56.2228V2.45746ZM66.9659 6.40551C66.9659 8.83435 68.1547 10 70.7629 10H74.8293C77.4368 10 78.6263 8.83802 78.6263 6.40551V0.108564H75.7883V5.75703C75.7883 6.99897 75.3661 7.48679 74.2043 7.48679H71.3878C70.2254 7.48679 69.8032 6.99897 69.8032 5.75703V0.108564H66.9659V6.40551ZM83.3836 2.53888H87.8215C88.7194 2.53888 89.1256 2.69952 89.1256 3.56587V3.89084C89.1256 4.5936 88.8478 4.91784 88.0771 4.91784H83.3836V2.53888ZM80.5449 9.88556H83.3822V7.34668H87.8451C88.7277 7.34668 89.0097 7.68559 89.0097 8.70965V9.88335H91.8463V8.22329C91.8463 6.61604 91.1442 6.22432 90.3006 6.06147V6.0336C91.6053 5.7123 91.8845 4.94058 91.8845 3.63116V3.00983C91.8845 1.24926 91.2977 0.10637 89.1124 0.10637H80.5449V9.88556ZM93.1254 2.53888H97.1168V9.88556H99.9541V2.53888H103.946V0.108564H93.1267L93.1254 2.53888ZM104.982 6.45759C104.982 9.31851 106.502 9.99633 109.061 9.99633H113.613C116.17 9.99633 117.69 9.32218 117.69 6.45759V3.53874C117.69 0.674153 116.17 0 113.613 0H109.061C106.502 0 104.982 0.674153 104.982 3.53874V6.45759ZM107.898 4.47036C107.898 3.25484 108.18 2.51101 109.676 2.51101H113.002C114.5 2.51101 114.781 3.25484 114.781 4.47036V5.52377C114.781 6.94542 114.503 7.48532 113.154 7.48532H109.522C108.18 7.48532 107.898 6.94542 107.898 5.52377V4.47036ZM119.408 9.88556H122.246V2.78096H122.27L127.604 9.88556H132V0.108564H129.163V7.21537H129.136L123.803 0.108564H119.405L119.408 9.88556Z" fill="#CB0017"/>
<path d="M140 14V0" stroke="#6D6F72" stroke-width="1.386"/>
<path d="M152.45 1.99C152.89 1.99 153.276 2.08 153.61 2.26C153.943 2.44 154.2 2.69667 154.38 3.03C154.566 3.35667 154.66 3.73333 154.66 4.16C154.66 4.58 154.563 4.95 154.37 5.27C154.183 5.59 153.916 5.84 153.57 6.02C153.23 6.19333 152.836 6.28 152.39 6.28H150.97C150.936 6.28 150.92 6.29667 150.92 6.33V8.88C150.92 8.91333 150.906 8.94333 150.88 8.97C150.86 8.99 150.833 9 150.8 9H149.63C149.596 9 149.566 8.99 149.54 8.97C149.52 8.94333 149.51 8.91333 149.51 8.88V2.11C149.51 2.07667 149.52 2.05 149.54 2.03C149.566 2.00333 149.596 1.99 149.63 1.99H152.45ZM152.24 5.15C152.546 5.15 152.793 5.06333 152.98 4.89C153.166 4.71 153.26 4.47667 153.26 4.19C153.26 3.89667 153.166 3.66 152.98 3.48C152.793 3.3 152.546 3.21 152.24 3.21H150.97C150.936 3.21 150.92 3.22667 150.92 3.26V5.1C150.92 5.13333 150.936 5.15 150.97 5.15H152.24ZM158.196 3.79C158.436 3.79 158.626 3.83667 158.766 3.93C158.82 3.95667 158.84 4.00667 158.826 4.08L158.616 5.22C158.61 5.3 158.563 5.32333 158.476 5.29C158.376 5.25667 158.26 5.24 158.126 5.24C158.073 5.24 158 5.24667 157.906 5.26C157.666 5.28 157.463 5.37 157.296 5.53C157.13 5.68333 157.046 5.89 157.046 6.15V8.88C157.046 8.91333 157.033 8.94333 157.006 8.97C156.986 8.99 156.96 9 156.926 9H155.756C155.723 9 155.693 8.99 155.666 8.97C155.646 8.94333 155.636 8.91333 155.636 8.88V3.98C155.636 3.94667 155.646 3.92 155.666 3.9C155.693 3.87333 155.723 3.86 155.756 3.86H156.926C156.96 3.86 156.986 3.87333 157.006 3.9C157.033 3.92 157.046 3.94667 157.046 3.98V4.36C157.046 4.38 157.053 4.39333 157.066 4.4C157.08 4.40667 157.09 4.40333 157.096 4.39C157.37 3.99 157.736 3.79 158.196 3.79ZM161.808 9.08C161.248 9.08 160.768 8.93333 160.368 8.64C159.968 8.34667 159.694 7.94667 159.548 7.44C159.454 7.12667 159.408 6.78667 159.408 6.42C159.408 6.02667 159.454 5.67333 159.548 5.36C159.701 4.86667 159.978 4.48 160.378 4.2C160.778 3.92 161.258 3.78 161.818 3.78C162.364 3.78 162.831 3.92 163.218 4.2C163.604 4.47333 163.878 4.85667 164.038 5.35C164.144 5.68333 164.198 6.03333 164.198 6.4C164.198 6.76 164.151 7.09667 164.058 7.41C163.911 7.93 163.638 8.34 163.238 8.64C162.844 8.93333 162.368 9.08 161.808 9.08ZM161.808 7.87C162.028 7.87 162.214 7.80333 162.368 7.67C162.521 7.53667 162.631 7.35333 162.698 7.12C162.751 6.90667 162.778 6.67333 162.778 6.42C162.778 6.14 162.751 5.90333 162.698 5.71C162.624 5.48333 162.511 5.30667 162.358 5.18C162.204 5.05333 162.018 4.99 161.798 4.99C161.571 4.99 161.381 5.05333 161.228 5.18C161.081 5.30667 160.974 5.48333 160.908 5.71C160.854 5.87 160.828 6.10667 160.828 6.42C160.828 6.72 160.851 6.95333 160.898 7.12C160.964 7.35333 161.074 7.53667 161.228 7.67C161.388 7.80333 161.581 7.87 161.808 7.87ZM166.054 3.28C165.827 3.28 165.641 3.20667 165.494 3.06C165.347 2.90667 165.274 2.71667 165.274 2.49C165.274 2.25667 165.347 2.06667 165.494 1.92C165.641 1.77333 165.827 1.7 166.054 1.7C166.287 1.7 166.477 1.77333 166.624 1.92C166.771 2.06667 166.844 2.25667 166.844 2.49C166.844 2.71667 166.767 2.90667 166.614 3.06C166.467 3.20667 166.281 3.28 166.054 3.28ZM164.304 11.04C164.224 11.04 164.184 11 164.184 10.92V9.97C164.184 9.88333 164.227 9.84667 164.314 9.86C164.707 9.87333 164.981 9.81667 165.134 9.69C165.294 9.56333 165.374 9.34 165.374 9.02L165.354 3.98C165.354 3.94667 165.364 3.92 165.384 3.9C165.411 3.87333 165.441 3.86 165.474 3.86H166.644C166.677 3.86 166.704 3.87333 166.724 3.9C166.751 3.92 166.764 3.94667 166.764 3.98V9C166.764 9.54 166.691 9.95667 166.544 10.25C166.397 10.55 166.147 10.76 165.794 10.88C165.447 11 164.951 11.0533 164.304 11.04ZM172.593 5.9C172.633 6.15333 172.646 6.43667 172.633 6.75C172.626 6.83 172.583 6.87 172.503 6.87H169.413C169.373 6.87 169.36 6.88667 169.373 6.92C169.393 7.05333 169.43 7.18667 169.483 7.32C169.656 7.69333 170.01 7.88 170.543 7.88C170.97 7.87333 171.306 7.7 171.553 7.36C171.58 7.32 171.61 7.3 171.643 7.3C171.663 7.3 171.686 7.31333 171.713 7.34L172.433 8.05C172.466 8.08333 172.483 8.11333 172.483 8.14C172.483 8.15333 172.47 8.18 172.443 8.22C172.223 8.49333 171.94 8.70667 171.593 8.86C171.246 9.00667 170.866 9.08 170.453 9.08C169.88 9.08 169.393 8.95 168.993 8.69C168.6 8.43 168.316 8.06667 168.143 7.6C168.003 7.26667 167.933 6.83 167.933 6.29C167.933 5.92333 167.983 5.6 168.083 5.32C168.236 4.84667 168.503 4.47 168.883 4.19C169.27 3.91 169.726 3.77 170.253 3.77C170.92 3.77 171.453 3.96333 171.853 4.35C172.26 4.73667 172.506 5.25333 172.593 5.9ZM170.263 4.99C169.843 4.99 169.566 5.18667 169.433 5.58C169.406 5.66667 169.383 5.77333 169.363 5.9C169.363 5.93333 169.38 5.95 169.413 5.95H171.143C171.183 5.95 171.196 5.93333 171.183 5.9C171.15 5.70667 171.133 5.61333 171.133 5.62C171.073 5.42 170.966 5.26667 170.813 5.16C170.666 5.04667 170.483 4.99 170.263 4.99ZM175.962 9.08C175.429 9.08 174.965 8.94667 174.572 8.68C174.185 8.41333 173.909 8.04667 173.742 7.58C173.629 7.24667 173.572 6.85333 173.572 6.4C173.572 5.95333 173.629 5.56667 173.742 5.24C173.902 4.78667 174.179 4.43 174.572 4.17C174.965 3.91 175.429 3.78 175.962 3.78C176.495 3.78 176.962 3.91333 177.362 4.18C177.769 4.44667 178.039 4.78333 178.172 5.19C178.225 5.35 178.252 5.47 178.252 5.55V5.57C178.252 5.63 178.219 5.66667 178.152 5.68L177.002 5.85H176.982C176.922 5.85 176.882 5.81667 176.862 5.75L176.832 5.59C176.785 5.41667 176.682 5.27333 176.522 5.16C176.362 5.04667 176.172 4.99 175.952 4.99C175.739 4.99 175.559 5.04333 175.412 5.15C175.265 5.25667 175.162 5.40333 175.102 5.59C175.029 5.79 174.992 6.06333 174.992 6.41C174.992 6.75667 175.025 7.03 175.092 7.23C175.152 7.43 175.255 7.58667 175.402 7.7C175.555 7.81333 175.739 7.87 175.952 7.87C176.159 7.87 176.339 7.81667 176.492 7.71C176.652 7.59667 176.762 7.44333 176.822 7.25C176.829 7.23667 176.832 7.21667 176.832 7.19C176.839 7.18333 176.842 7.17333 176.842 7.16C176.849 7.08 176.895 7.04667 176.982 7.06L178.132 7.24C178.199 7.25333 178.232 7.29 178.232 7.35C178.232 7.40333 178.212 7.50333 178.172 7.65C178.032 8.09667 177.759 8.44667 177.352 8.7C176.952 8.95333 176.489 9.08 175.962 9.08ZM182.223 4.87C182.223 4.90333 182.21 4.93333 182.183 4.96C182.163 4.98 182.136 4.99 182.103 4.99H181.143C181.11 4.99 181.093 5.00667 181.093 5.04V7.16C181.093 7.38 181.136 7.54333 181.223 7.65C181.316 7.75667 181.463 7.81 181.663 7.81H181.993C182.026 7.81 182.053 7.82333 182.073 7.85C182.1 7.87 182.113 7.89667 182.113 7.93V8.88C182.113 8.95333 182.073 8.99667 181.993 9.01C181.713 9.02333 181.513 9.03 181.393 9.03C180.84 9.03 180.426 8.94 180.153 8.76C179.88 8.57333 179.74 8.22667 179.733 7.72V5.04C179.733 5.00667 179.716 4.99 179.683 4.99H179.113C179.08 4.99 179.05 4.98 179.023 4.96C179.003 4.93333 178.993 4.90333 178.993 4.87V3.98C178.993 3.94667 179.003 3.92 179.023 3.9C179.05 3.87333 179.08 3.86 179.113 3.86H179.683C179.716 3.86 179.733 3.84333 179.733 3.81V2.62C179.733 2.58667 179.743 2.56 179.763 2.54C179.79 2.51333 179.82 2.5 179.853 2.5H180.973C181.006 2.5 181.033 2.51333 181.053 2.54C181.08 2.56 181.093 2.58667 181.093 2.62V3.81C181.093 3.84333 181.11 3.86 181.143 3.86H182.103C182.136 3.86 182.163 3.87333 182.183 3.9C182.21 3.92 182.223 3.94667 182.223 3.98V4.87ZM190.064 2.08C190.097 2.02667 190.144 2 190.204 2H191.374C191.407 2 191.434 2.01333 191.454 2.04C191.481 2.06 191.494 2.08667 191.494 2.12V8.88C191.494 8.91333 191.481 8.94333 191.454 8.97C191.434 8.99 191.407 9 191.374 9H190.204C190.171 9 190.141 8.99 190.114 8.97C190.094 8.94333 190.084 8.91333 190.084 8.88V4.47C190.084 4.44333 190.077 4.43 190.064 4.43C190.051 4.43 190.037 4.44 190.024 4.46L188.964 6.12C188.931 6.17333 188.884 6.2 188.824 6.2H188.234C188.174 6.2 188.127 6.17333 188.094 6.12L187.034 4.46C187.021 4.44 187.007 4.43333 186.994 4.44C186.981 4.44 186.974 4.45333 186.974 4.48V8.88C186.974 8.91333 186.961 8.94333 186.934 8.97C186.914 8.99 186.887 9 186.854 9H185.684C185.651 9 185.621 8.99 185.594 8.97C185.574 8.94333 185.564 8.91333 185.564 8.88V2.12C185.564 2.08667 185.574 2.06 185.594 2.04C185.621 2.01333 185.651 2 185.684 2H186.854C186.914 2 186.961 2.02667 186.994 2.08L188.494 4.41C188.514 4.45 188.534 4.45 188.554 4.41L190.064 2.08ZM194.872 3.78C195.306 3.78 195.692 3.85667 196.032 4.01C196.372 4.15667 196.636 4.36 196.822 4.62C197.016 4.88 197.112 5.17 197.112 5.49V8.88C197.112 8.91333 197.099 8.94333 197.072 8.97C197.052 8.99 197.026 9 196.992 9H195.822C195.789 9 195.759 8.99 195.732 8.97C195.712 8.94333 195.702 8.91333 195.702 8.88V8.55C195.702 8.53 195.696 8.51667 195.682 8.51C195.669 8.50333 195.656 8.51 195.642 8.53C195.362 8.89667 194.912 9.08 194.292 9.08C193.772 9.08 193.352 8.95333 193.032 8.7C192.712 8.44667 192.552 8.07333 192.552 7.58C192.552 7.06667 192.732 6.67 193.092 6.39C193.452 6.10333 193.966 5.96 194.632 5.96H195.652C195.686 5.96 195.702 5.94333 195.702 5.91V5.69C195.702 5.47 195.636 5.3 195.502 5.18C195.369 5.05333 195.169 4.99 194.902 4.99C194.696 4.99 194.522 5.02667 194.382 5.1C194.249 5.17333 194.162 5.27667 194.122 5.41C194.102 5.48333 194.059 5.51667 193.992 5.51L192.782 5.35C192.702 5.33667 192.666 5.30667 192.672 5.26C192.699 4.98 192.809 4.72667 193.002 4.5C193.202 4.27333 193.462 4.09667 193.782 3.97C194.109 3.84333 194.472 3.78 194.872 3.78ZM194.672 8.03C194.959 8.03 195.202 7.95333 195.402 7.8C195.602 7.64667 195.702 7.45 195.702 7.21V6.85C195.702 6.81667 195.686 6.8 195.652 6.8H194.932C194.632 6.8 194.396 6.85667 194.222 6.97C194.056 7.08333 193.972 7.24333 193.972 7.45C193.972 7.63 194.036 7.77333 194.162 7.88C194.289 7.98 194.459 8.03 194.672 8.03ZM200.986 3.78C201.519 3.78 201.949 3.94333 202.276 4.27C202.602 4.59667 202.766 5.04 202.766 5.6V8.88C202.766 8.91333 202.752 8.94333 202.726 8.97C202.706 8.99 202.679 9 202.646 9H201.476C201.442 9 201.412 8.99 201.386 8.97C201.366 8.94333 201.356 8.91333 201.356 8.88V5.89C201.356 5.62333 201.279 5.40667 201.126 5.24C200.979 5.07333 200.782 4.99 200.536 4.99C200.289 4.99 200.089 5.07333 199.936 5.24C199.789 5.40667 199.716 5.62333 199.716 5.89V8.88C199.716 8.91333 199.702 8.94333 199.676 8.97C199.656 8.99 199.629 9 199.596 9H198.426C198.392 9 198.362 8.99 198.336 8.97C198.316 8.94333 198.306 8.91333 198.306 8.88V3.98C198.306 3.94667 198.316 3.92 198.336 3.9C198.362 3.87333 198.392 3.86 198.426 3.86H199.596C199.629 3.86 199.656 3.87333 199.676 3.9C199.702 3.92 199.716 3.94667 199.716 3.98V4.33C199.716 4.35 199.722 4.36333 199.736 4.37C199.749 4.37667 199.759 4.37333 199.766 4.36C200.039 3.97333 200.446 3.78 200.986 3.78ZM206.024 3.78C206.458 3.78 206.844 3.85667 207.184 4.01C207.524 4.15667 207.788 4.36 207.974 4.62C208.168 4.88 208.264 5.17 208.264 5.49V8.88C208.264 8.91333 208.251 8.94333 208.224 8.97C208.204 8.99 208.178 9 208.144 9H206.974C206.941 9 206.911 8.99 206.884 8.97C206.864 8.94333 206.854 8.91333 206.854 8.88V8.55C206.854 8.53 206.848 8.51667 206.834 8.51C206.821 8.50333 206.808 8.51 206.794 8.53C206.514 8.89667 206.064 9.08 205.444 9.08C204.924 9.08 204.504 8.95333 204.184 8.7C203.864 8.44667 203.704 8.07333 203.704 7.58C203.704 7.06667 203.884 6.67 204.244 6.39C204.604 6.10333 205.118 5.96 205.784 5.96H206.804C206.838 5.96 206.854 5.94333 206.854 5.91V5.69C206.854 5.47 206.788 5.3 206.654 5.18C206.521 5.05333 206.321 4.99 206.054 4.99C205.848 4.99 205.674 5.02667 205.534 5.1C205.401 5.17333 205.314 5.27667 205.274 5.41C205.254 5.48333 205.211 5.51667 205.144 5.51L203.934 5.35C203.854 5.33667 203.818 5.30667 203.824 5.26C203.851 4.98 203.961 4.72667 204.154 4.5C204.354 4.27333 204.614 4.09667 204.934 3.97C205.261 3.84333 205.624 3.78 206.024 3.78ZM205.824 8.03C206.111 8.03 206.354 7.95333 206.554 7.8C206.754 7.64667 206.854 7.45 206.854 7.21V6.85C206.854 6.81667 206.838 6.8 206.804 6.8H206.084C205.784 6.8 205.548 6.85667 205.374 6.97C205.208 7.08333 205.124 7.24333 205.124 7.45C205.124 7.63 205.188 7.77333 205.314 7.88C205.441 7.98 205.611 8.03 205.824 8.03ZM212.598 3.98C212.598 3.94667 212.608 3.92 212.628 3.9C212.654 3.87333 212.684 3.86 212.718 3.86H213.888C213.921 3.86 213.948 3.87333 213.968 3.9C213.994 3.92 214.008 3.94667 214.008 3.98V8.54C214.008 9.41333 213.754 10.0367 213.248 10.41C212.748 10.7833 212.101 10.97 211.308 10.97C211.074 10.97 210.814 10.9533 210.528 10.92C210.461 10.9133 210.428 10.87 210.428 10.79L210.468 9.76C210.468 9.67333 210.514 9.63667 210.608 9.65C210.848 9.69 211.068 9.71 211.268 9.71C211.694 9.71 212.021 9.61667 212.248 9.43C212.481 9.24333 212.598 8.94333 212.598 8.53C212.598 8.51 212.591 8.5 212.578 8.5C212.564 8.49333 212.551 8.49667 212.538 8.51C212.284 8.78333 211.914 8.92 211.428 8.92C210.994 8.92 210.594 8.81667 210.228 8.61C209.868 8.39667 209.611 8.05667 209.458 7.59C209.358 7.28333 209.308 6.88667 209.308 6.4C209.308 5.88 209.368 5.45667 209.488 5.13C209.628 4.72333 209.864 4.39667 210.198 4.15C210.531 3.90333 210.918 3.78 211.358 3.78C211.871 3.78 212.264 3.93333 212.538 4.24C212.551 4.25333 212.564 4.26 212.578 4.26C212.591 4.25333 212.598 4.24 212.598 4.22V3.98ZM212.518 7.21C212.571 7.01 212.598 6.73667 212.598 6.39C212.598 6.18333 212.591 6.02333 212.578 5.91C212.564 5.79667 212.541 5.69 212.508 5.59C212.448 5.41 212.348 5.26667 212.208 5.16C212.068 5.04667 211.894 4.99 211.688 4.99C211.488 4.99 211.318 5.04667 211.178 5.16C211.038 5.26667 210.934 5.41 210.868 5.59C210.774 5.79 210.728 6.06 210.728 6.4C210.728 6.77333 210.768 7.04 210.848 7.2C210.908 7.38 211.011 7.52667 211.158 7.64C211.311 7.74667 211.491 7.8 211.698 7.8C211.911 7.8 212.088 7.74667 212.228 7.64C212.368 7.52667 212.464 7.38333 212.518 7.21ZM219.764 5.9C219.804 6.15333 219.817 6.43667 219.804 6.75C219.797 6.83 219.754 6.87 219.674 6.87H216.584C216.544 6.87 216.531 6.88667 216.544 6.92C216.564 7.05333 216.601 7.18667 216.654 7.32C216.827 7.69333 217.181 7.88 217.714 7.88C218.141 7.87333 218.477 7.7 218.724 7.36C218.751 7.32 218.781 7.3 218.814 7.3C218.834 7.3 218.857 7.31333 218.884 7.34L219.604 8.05C219.637 8.08333 219.654 8.11333 219.654 8.14C219.654 8.15333 219.641 8.18 219.614 8.22C219.394 8.49333 219.111 8.70667 218.764 8.86C218.417 9.00667 218.037 9.08 217.624 9.08C217.051 9.08 216.564 8.95 216.164 8.69C215.771 8.43 215.487 8.06667 215.314 7.6C215.174 7.26667 215.104 6.83 215.104 6.29C215.104 5.92333 215.154 5.6 215.254 5.32C215.407 4.84667 215.674 4.47 216.054 4.19C216.441 3.91 216.897 3.77 217.424 3.77C218.091 3.77 218.624 3.96333 219.024 4.35C219.431 4.73667 219.677 5.25333 219.764 5.9ZM217.434 4.99C217.014 4.99 216.737 5.18667 216.604 5.58C216.577 5.66667 216.554 5.77333 216.534 5.9C216.534 5.93333 216.551 5.95 216.584 5.95H218.314C218.354 5.95 218.367 5.93333 218.354 5.9C218.321 5.70667 218.304 5.61333 218.304 5.62C218.244 5.42 218.137 5.26667 217.984 5.16C217.837 5.04667 217.654 4.99 217.434 4.99ZM226.573 3.78C227.093 3.78 227.5 3.93667 227.793 4.25C228.086 4.56333 228.233 5.00333 228.233 5.57V8.88C228.233 8.91333 228.22 8.94333 228.193 8.97C228.173 8.99 228.146 9 228.113 9H226.943C226.91 9 226.88 8.99 226.853 8.97C226.833 8.94333 226.823 8.91333 226.823 8.88V5.88C226.823 5.60667 226.753 5.39 226.613 5.23C226.473 5.07 226.286 4.99 226.053 4.99C225.82 4.99 225.63 5.07 225.483 5.23C225.336 5.39 225.263 5.60333 225.263 5.87V8.88C225.263 8.91333 225.25 8.94333 225.223 8.97C225.203 8.99 225.176 9 225.143 9H223.983C223.95 9 223.92 8.99 223.893 8.97C223.873 8.94333 223.863 8.91333 223.863 8.88V5.88C223.863 5.61333 223.79 5.4 223.643 5.24C223.496 5.07333 223.306 4.99 223.073 4.99C222.86 4.99 222.68 5.05333 222.533 5.18C222.393 5.30667 222.31 5.48333 222.283 5.71V8.88C222.283 8.91333 222.27 8.94333 222.243 8.97C222.223 8.99 222.196 9 222.163 9H220.993C220.96 9 220.93 8.99 220.903 8.97C220.883 8.94333 220.873 8.91333 220.873 8.88V3.98C220.873 3.94667 220.883 3.92 220.903 3.9C220.93 3.87333 220.96 3.86 220.993 3.86H222.163C222.196 3.86 222.223 3.87333 222.243 3.9C222.27 3.92 222.283 3.94667 222.283 3.98V4.37C222.283 4.39 222.29 4.40333 222.303 4.41C222.316 4.41667 222.33 4.41 222.343 4.39C222.616 3.98333 223.04 3.78 223.613 3.78C223.946 3.78 224.236 3.85 224.483 3.99C224.736 4.13 224.93 4.33 225.063 4.59C225.083 4.63 225.106 4.63 225.133 4.59C225.28 4.31667 225.476 4.11333 225.723 3.98C225.976 3.84667 226.26 3.78 226.573 3.78ZM233.943 5.9C233.983 6.15333 233.997 6.43667 233.983 6.75C233.977 6.83 233.933 6.87 233.853 6.87H230.763C230.723 6.87 230.71 6.88667 230.723 6.92C230.743 7.05333 230.78 7.18667 230.833 7.32C231.007 7.69333 231.36 7.88 231.893 7.88C232.32 7.87333 232.657 7.7 232.903 7.36C232.93 7.32 232.96 7.3 232.993 7.3C233.013 7.3 233.037 7.31333 233.063 7.34L233.783 8.05C233.817 8.08333 233.833 8.11333 233.833 8.14C233.833 8.15333 233.82 8.18 233.793 8.22C233.573 8.49333 233.29 8.70667 232.943 8.86C232.597 9.00667 232.217 9.08 231.803 9.08C231.23 9.08 230.743 8.95 230.343 8.69C229.95 8.43 229.667 8.06667 229.493 7.6C229.353 7.26667 229.283 6.83 229.283 6.29C229.283 5.92333 229.333 5.6 229.433 5.32C229.587 4.84667 229.853 4.47 230.233 4.19C230.62 3.91 231.077 3.77 231.603 3.77C232.27 3.77 232.803 3.96333 233.203 4.35C233.61 4.73667 233.857 5.25333 233.943 5.9ZM231.613 4.99C231.193 4.99 230.917 5.18667 230.783 5.58C230.757 5.66667 230.733 5.77333 230.713 5.9C230.713 5.93333 230.73 5.95 230.763 5.95H232.493C232.533 5.95 232.547 5.93333 232.533 5.9C232.5 5.70667 232.483 5.61333 232.483 5.62C232.423 5.42 232.317 5.26667 232.163 5.16C232.017 5.04667 231.833 4.99 231.613 4.99ZM237.732 3.78C238.266 3.78 238.696 3.94333 239.022 4.27C239.349 4.59667 239.512 5.04 239.512 5.6V8.88C239.512 8.91333 239.499 8.94333 239.472 8.97C239.452 8.99 239.426 9 239.392 9H238.222C238.189 9 238.159 8.99 238.132 8.97C238.112 8.94333 238.102 8.91333 238.102 8.88V5.89C238.102 5.62333 238.026 5.40667 237.872 5.24C237.726 5.07333 237.529 4.99 237.282 4.99C237.036 4.99 236.836 5.07333 236.682 5.24C236.536 5.40667 236.462 5.62333 236.462 5.89V8.88C236.462 8.91333 236.449 8.94333 236.422 8.97C236.402 8.99 236.376 9 236.342 9H235.172C235.139 9 235.109 8.99 235.082 8.97C235.062 8.94333 235.052 8.91333 235.052 8.88V3.98C235.052 3.94667 235.062 3.92 235.082 3.9C235.109 3.87333 235.139 3.86 235.172 3.86H236.342C236.376 3.86 236.402 3.87333 236.422 3.9C236.449 3.92 236.462 3.94667 236.462 3.98V4.33C236.462 4.35 236.469 4.36333 236.482 4.37C236.496 4.37667 236.506 4.37333 236.512 4.36C236.786 3.97333 237.192 3.78 237.732 3.78ZM243.671 4.87C243.671 4.90333 243.658 4.93333 243.631 4.96C243.611 4.98 243.585 4.99 243.551 4.99H242.591C242.558 4.99 242.541 5.00667 242.541 5.04V7.16C242.541 7.38 242.585 7.54333 242.671 7.65C242.765 7.75667 242.911 7.81 243.111 7.81H243.441C243.475 7.81 243.501 7.82333 243.521 7.85C243.548 7.87 243.561 7.89667 243.561 7.93V8.88C243.561 8.95333 243.521 8.99667 243.441 9.01C243.161 9.02333 242.961 9.03 242.841 9.03C242.288 9.03 241.875 8.94 241.601 8.76C241.328 8.57333 241.188 8.22667 241.181 7.72V5.04C241.181 5.00667 241.165 4.99 241.131 4.99H240.561C240.528 4.99 240.498 4.98 240.471 4.96C240.451 4.93333 240.441 4.90333 240.441 4.87V3.98C240.441 3.94667 240.451 3.92 240.471 3.9C240.498 3.87333 240.528 3.86 240.561 3.86H241.131C241.165 3.86 241.181 3.84333 241.181 3.81V2.62C241.181 2.58667 241.191 2.56 241.211 2.54C241.238 2.51333 241.268 2.5 241.301 2.5H242.421C242.455 2.5 242.481 2.51333 242.501 2.54C242.528 2.56 242.541 2.58667 242.541 2.62V3.81C242.541 3.84333 242.558 3.86 242.591 3.86H243.551C243.585 3.86 243.611 3.87333 243.631 3.9C243.658 3.92 243.671 3.94667 243.671 3.98V4.87Z" fill="#6D6F72"/>
</svg>
