<svg width="132" height="10" viewBox="0 0 132 10" fill="none" xmlns="http://www.w3.org/2000/svg">
<path d="M0 9.88556H2.83732V6.18838H8.82167V9.88923H11.6604V0.108564H8.82167V3.59155H2.83732V0.108564H0V9.88556ZM12.6721 9.88556H15.8414L16.6746 8.15801H22.4236L23.3062 9.88556H26.4643L21.3757 0.108564H17.6822L12.6721 9.88556ZM19.5252 2.37603L21.366 6.0534H17.7343L19.5252 2.37603ZM27.4788 9.88556H36.6956V7.37455H30.3175V0.112236H27.4788V9.88556ZM37.9011 9.88556H47.1199V7.37455H40.7363V0.112236H37.9011V9.88556ZM48.4761 9.88556H51.3106V0.108564H48.474L48.4761 9.88556ZM53.3855 9.88556H62.4259C64.0487 9.88556 65.2514 9.44542 65.2514 7.2946C65.2514 5.82086 64.7897 5.12031 63.5502 4.95672V4.91711C64.3418 4.67283 64.9181 4.35079 64.9181 2.67312C64.9181 0.757774 63.8196 0.105632 61.5579 0.105632H53.3855V9.88556ZM56.2228 6.01012H61.3128C61.9287 6.01012 62.3377 6.15684 62.3377 6.82072C62.3377 7.3885 61.9287 7.53668 61.3128 7.53668H56.2228V6.01012ZM56.2228 2.45746H61.2489C61.7746 2.45746 62.0822 2.65992 62.0822 3.22697C62.0822 3.78228 61.776 3.98473 61.2489 3.98473H56.2228V2.45746ZM66.9659 6.40551C66.9659 8.83435 68.1547 10 70.7629 10H74.8293C77.4368 10 78.6263 8.83802 78.6263 6.40551V0.108564H75.7883V5.75703C75.7883 6.99897 75.3661 7.48679 74.2043 7.48679H71.3878C70.2254 7.48679 69.8032 6.99897 69.8032 5.75703V0.108564H66.9659V6.40551ZM83.3836 2.53888H87.8215C88.7194 2.53888 89.1256 2.69952 89.1256 3.56587V3.89084C89.1256 4.5936 88.8478 4.91784 88.0771 4.91784H83.3836V2.53888ZM80.5449 9.88556H83.3822V7.34668H87.8451C88.7277 7.34668 89.0097 7.68559 89.0097 8.70965V9.88335H91.8463V8.22329C91.8463 6.61604 91.1442 6.22432 90.3006 6.06147V6.0336C91.6053 5.7123 91.8845 4.94058 91.8845 3.63116V3.00983C91.8845 1.24926 91.2977 0.10637 89.1124 0.10637H80.5449V9.88556ZM93.1254 2.53888H97.1168V9.88556H99.9541V2.53888H103.946V0.108564H93.1267L93.1254 2.53888ZM104.982 6.45759C104.982 9.31851 106.502 9.99633 109.061 9.99633H113.613C116.17 9.99633 117.69 9.32218 117.69 6.45759V3.53874C117.69 0.674153 116.17 0 113.613 0H109.061C106.502 0 104.982 0.674153 104.982 3.53874V6.45759ZM107.898 4.47036C107.898 3.25484 108.18 2.51101 109.676 2.51101H113.002C114.5 2.51101 114.781 3.25484 114.781 4.47036V5.52377C114.781 6.94542 114.503 7.48532 113.154 7.48532H109.522C108.18 7.48532 107.898 6.94542 107.898 5.52377V4.47036ZM119.408 9.88556H122.246V2.78096H122.27L127.604 9.88556H132V0.108564H129.163V7.21537H129.136L123.803 0.108564H119.405L119.408 9.88556Z" fill="#CB0017"/>
</svg>
