<svg width="120" height="104" viewBox="0 0 120 104" fill="none" xmlns="http://www.w3.org/2000/svg">
<circle cx="59.9998" cy="31.9974" r="28.3333" fill="#D9D9D9" stroke="#F7F8F9" stroke-width="2"/>
<path d="M36.8145 94.972C36.7211 94.972 36.6371 94.944 36.5625 94.888C36.5065 94.8133 36.4785 94.7293 36.4785 94.636V87.132C36.4785 87.0573 36.4691 87.0013 36.4505 86.964L30.6825 75.792C30.6451 75.7173 30.6265 75.6613 30.6265 75.624C30.6265 75.4747 30.7291 75.4 30.9345 75.4H33.7065C33.8931 75.4 34.0238 75.484 34.0985 75.652L38.0185 83.464C38.0745 83.5387 38.1305 83.5387 38.1865 83.464L42.1345 75.652C42.2278 75.484 42.3585 75.4 42.5265 75.4H45.3265C45.4571 75.4 45.5411 75.4373 45.5785 75.512C45.6345 75.5867 45.6345 75.68 45.5785 75.792L39.7825 86.964C39.7451 87.0387 39.7265 87.0947 39.7265 87.132V94.636C39.7265 94.7293 39.6891 94.8133 39.6145 94.888C39.5585 94.944 39.4838 94.972 39.3905 94.972H36.8145ZM52.2534 95.224C50.7787 95.224 49.5094 94.8507 48.4454 94.104C47.4001 93.3573 46.6627 92.3213 46.2334 90.996C45.9161 89.988 45.7574 88.924 45.7574 87.804C45.7574 86.6093 45.9067 85.5453 46.2054 84.612C46.6347 83.3053 47.3814 82.288 48.4454 81.56C49.5094 80.832 50.7881 80.468 52.2814 80.468C53.7001 80.468 54.9227 80.832 55.9494 81.56C56.9947 82.288 57.7321 83.296 58.1614 84.584C58.4974 85.48 58.6654 86.544 58.6654 87.776C58.6654 88.952 58.5067 90.016 58.1894 90.968C57.7601 92.2933 57.0227 93.3387 55.9774 94.104C54.9321 94.8507 53.6907 95.224 52.2534 95.224ZM52.2534 92.424C52.9441 92.424 53.5321 92.228 54.0174 91.836C54.5214 91.444 54.8854 90.8933 55.1094 90.184C55.2961 89.568 55.3894 88.784 55.3894 87.832C55.3894 86.824 55.2961 86.04 55.1094 85.48C54.9041 84.7707 54.5494 84.2293 54.0454 83.856C53.5414 83.464 52.9254 83.268 52.1974 83.268C51.5067 83.268 50.9094 83.464 50.4054 83.856C49.9014 84.2293 49.5374 84.7707 49.3134 85.48C49.1267 86.1333 49.0334 86.9173 49.0334 87.832C49.0334 88.7467 49.1267 89.5307 49.3134 90.184C49.5187 90.8933 49.8734 91.444 50.3774 91.836C50.9001 92.228 51.5254 92.424 52.2534 92.424ZM70.612 75.736C70.612 75.6427 70.64 75.568 70.696 75.512C70.7707 75.4373 70.8547 75.4 70.948 75.4H73.524C73.6173 75.4 73.692 75.4373 73.748 75.512C73.8227 75.568 73.86 75.6427 73.86 75.736V94.664C73.86 94.7573 73.8227 94.8413 73.748 94.916C73.692 94.972 73.6173 95 73.524 95H70.948C70.8547 95 70.7707 94.972 70.696 94.916C70.64 94.8413 70.612 94.7573 70.612 94.664V93.824C70.612 93.768 70.5933 93.7307 70.556 93.712C70.5187 93.6933 70.4813 93.712 70.444 93.768C69.6227 94.7387 68.5493 95.224 67.224 95.224C65.8987 95.224 64.7787 94.8787 63.864 94.188C62.9493 93.4973 62.2867 92.536 61.876 91.304C61.54 90.2587 61.372 89.092 61.372 87.804C61.372 86.4787 61.5307 85.34 61.848 84.388C62.2587 83.156 62.9213 82.1947 63.836 81.504C64.7507 80.8133 65.8987 80.468 67.28 80.468C68.568 80.468 69.6227 80.9347 70.444 81.868C70.4813 81.9053 70.5187 81.924 70.556 81.924C70.5933 81.9053 70.612 81.868 70.612 81.812V75.736ZM69.94 91.08C70.3693 90.3147 70.584 89.232 70.584 87.832C70.584 86.376 70.3507 85.2653 69.884 84.5C69.38 83.6787 68.6707 83.268 67.756 83.268C66.804 83.268 66.0573 83.66 65.516 84.444C64.956 85.2653 64.676 86.404 64.676 87.86C64.676 89.1667 64.9 90.24 65.348 91.08C65.8707 91.976 66.664 92.424 67.728 92.424C68.68 92.424 69.4173 91.976 69.94 91.08ZM82.8366 80.468C84.0126 80.468 85.0486 80.6733 85.9446 81.084C86.8406 81.4947 87.5313 82.064 88.0166 82.792C88.502 83.5013 88.7446 84.3133 88.7446 85.228V94.664C88.7446 94.7573 88.7073 94.8413 88.6326 94.916C88.5766 94.972 88.502 95 88.4086 95H85.8326C85.7393 95 85.6553 94.972 85.5806 94.916C85.5246 94.8413 85.4966 94.7573 85.4966 94.664V93.768C85.4966 93.712 85.478 93.684 85.4406 93.684C85.4033 93.6653 85.366 93.6747 85.3286 93.712C84.414 94.72 83.0886 95.224 81.3526 95.224C79.9526 95.224 78.7953 94.8693 77.8806 94.16C76.9846 93.4507 76.5366 92.396 76.5366 90.996C76.5366 89.54 77.0406 88.4107 78.0486 87.608C79.0753 86.7867 80.5126 86.376 82.3606 86.376H85.3566C85.45 86.376 85.4966 86.3293 85.4966 86.236V85.564C85.4966 84.836 85.282 84.276 84.8526 83.884C84.4233 83.4733 83.7793 83.268 82.9206 83.268C82.2113 83.268 81.6326 83.3987 81.1846 83.66C80.7553 83.9027 80.4846 84.248 80.3726 84.696C80.3166 84.92 80.186 85.0133 79.9806 84.976L77.2646 84.64C77.1713 84.6213 77.0873 84.5933 77.0126 84.556C76.9566 84.5 76.938 84.4347 76.9566 84.36C77.106 83.2213 77.7126 82.288 78.7766 81.56C79.8593 80.832 81.2126 80.468 82.8366 80.468ZM82.1646 92.648C83.0793 92.648 83.8633 92.4053 84.5166 91.92C85.17 91.4347 85.4966 90.8187 85.4966 90.072V88.756C85.4966 88.6627 85.45 88.616 85.3566 88.616H83.0046C82.0153 88.616 81.2313 88.8027 80.6526 89.176C80.0926 89.5493 79.8126 90.0813 79.8126 90.772C79.8126 91.3693 80.0273 91.836 80.4566 92.172C80.9046 92.4893 81.474 92.648 82.1646 92.648Z" fill="#F7F8F9"/>
</svg>
